#N canvas 0 58 1745 890 12;
#N canvas 0 50 450 250 (subpatch) 0;
#X array \$0_vizarray 65536 float 2;
#X coords 0 1 65536 0 400 140 1 0 0;
#X restore 631 433 graph;
#X msg 773 150 normalize win_vals;
#X msg 773 40 normalize win_rms;
#X text 907 39 default;
#X msg 773 128 normalize win_mean;
#X msg 773 62 normalize none;
#X msg 773 106 normalize fixed 0.1;
#X msg 773 83 normalize overlap;
#X text 19 86 4: zeropadding \, in fraction of analysis block \, of output windowed layers (ueful to decrease the 'reverberation' of bigger windows with many overlaps);
#X text 19 133 5: alignment of window (left \, center \, right);
#X text 19 18 1: analysis block (in samples \, power of two) [default: 1024];
#X text 19 35 2: number of analysis overlaps [default: 2];
#N canvas 0 148 450 300 vizarray_draw 0;
#X obj 30 63 bang~;
#X obj 49 98 f;
#X msg 147 138 0;
#X obj 54 122 + 64, f 8;
#X obj 104 16 t f f;
#X obj 36 152 t b f;
#X obj 193 87 f;
#X obj 128 83 sel 1 0;
#X obj 128 59 > 65536;
#X obj 48 170 array get \$0_vecbuf;
#X obj 46 213 array set \$0_vizarray;
#X connect 0 0 1 0;
#X connect 1 0 3 0;
#X connect 1 0 5 0;
#X connect 2 0 1 1;
#X connect 3 0 4 0;
#X connect 4 0 8 0;
#X connect 4 1 6 1;
#X connect 5 0 9 0;
#X connect 5 1 10 1;
#X connect 6 0 1 1;
#X connect 7 0 2 0;
#X connect 7 1 6 0;
#X connect 8 0 7 0;
#X connect 9 0 10 0;
#X restore 631 579 pd vizarray_draw;
#X msg 609 41 window rect;
#X msg 617 266 zeropadding 0;
#N canvas 0 118 747 645 testsigs 0;
#X obj 122 72 metro 500;
#X obj 122 52 tgl 15 0 empty empty empty 17 7 0 10 #fcfcfc #000000 #000000 0 1;
#X obj 125 153 vline~;
#X obj 124 182 *~;
#X obj 124 256 *~;
#X obj 164 232 noise~;
#X obj 124 206 *~;
#X obj 145 96 t b b;
#X obj 125 230 *~;
#X obj 194 96 del 5;
#X msg 125 126 0 \, 1 5;
#X msg 188 125 0 995;
#X obj 116 2 loadbang;
#X msg 116 26 1;
#X obj 70 337 == 1;
#X obj 347 330 noise~;
#X obj 147 344 == 2;
#X obj 232 267 osc~ 440;
#X obj 242 343 == 3;
#X floatatom 322 211 5 0 0 0 - - - 0;
#X obj 295 474 *~ 1;
#X obj 366 269 == 4;
#X obj 295 498 outlet~;
#X obj 475 128 inlet;
#X msg 338 97 1000 \$1;
#X obj 338 121 /;
#X obj 341 61 inlet;
#X obj 123 312 *~;
#X obj 352 372 *~ 0;
#X obj 97 377 *~ 0;
#X obj -1 370 *~ 0;
#X obj 192 376 *~ 0;
#X obj 205 319 *~;
#X connect 0 0 7 0;
#X connect 1 0 0 0;
#X connect 2 0 3 0;
#X connect 2 0 3 1;
#X connect 3 0 6 0;
#X connect 3 0 6 1;
#X connect 4 0 30 0;
#X connect 5 0 4 1;
#X connect 5 0 32 1;
#X connect 6 0 8 0;
#X connect 6 0 8 1;
#X connect 7 0 9 0;
#X connect 7 1 10 0;
#X connect 8 0 4 0;
#X connect 8 0 27 0;
#X connect 8 0 32 0;
#X connect 9 0 11 0;
#X connect 10 0 2 0;
#X connect 11 0 2 0;
#X connect 12 0 13 0;
#X connect 13 0 1 0;
#X connect 14 0 30 1;
#X connect 15 0 28 0;
#X connect 16 0 29 1;
#X connect 17 0 27 1;
#X connect 17 0 32 1;
#X connect 18 0 31 1;
#X connect 19 0 18 0;
#X connect 19 0 14 0;
#X connect 19 0 21 0;
#X connect 19 0 16 0;
#X connect 20 0 22 0;
#X connect 21 0 28 1;
#X connect 23 0 19 0;
#X connect 24 0 25 0;
#X connect 25 0 0 1;
#X connect 26 0 24 0;
#X connect 27 0 29 0;
#X connect 28 0 20 0;
#X connect 29 0 20 0;
#X connect 30 0 20 0;
#X connect 31 0 20 0;
#X connect 32 0 31 0;
#X restore 31 370 pd testsigs;
#X obj 105 349 hradio 15 1 0 5 empty empty empty 0 -8 0 10 #fcfcfc #000000 #000000 0;
#X msg 609 88 window hann;
#X msg 609 111 window hamm;
#X msg 609 65 window tri;
#X msg 609 133 window black;
#X msg 792 263 winalign left;
#X obj 31 221 loadbang;
#X msg 31 265 1;
#X text 64 264 Hz (attacks per second);
#X text 192 301 1 noise decay;
#X text 192 338 3 noise + sine decay;
#X text 192 321 2 sine decay;
#X text 192 353 4 noise (static);
#X obj 277 496 r \$0_to_rmsoverlap;
#X obj 596 179 s \$0_to_rmsoverlap;
#X msg 609 155 window cos;
#X text 700 41 default;
#X obj 761 178 s \$0_to_rmsoverlap;
#X text 763 14 output normalization method;
#X msg 792 285 winalign right;
#X msg 792 308 winalign center;
#X text 596 14 output window type;
#X obj 780 339 s \$0_to_rmsoverlap;
#X obj 607 334 s \$0_to_rmsoverlap;
#X text 455 238 fraction of output window to be zero-padded;
#X text 791 236 output window alignment;
#X obj 109 304 loadbang;
#X msg 109 327 1;
#X text 19 56 3: layer output window type (rect \, tri \, hann \, hamm \, black \, cos);
#X obj 796 627 print;
#X obj 794 581 bng 15 250 50 0 empty empty empty 17 7 0 10 #fcfcfc #000000 #000000;
#X msg 617 310 zeropadding 0.1;
#X msg 617 288 zeropadding 0.984375;
#X obj 435 557 print;
#X obj 484 555 route window;
#X obj 484 579 list length;
#X floatatom 484 603 5 0 0 0 - - - 0;
#X obj 263 527 rmsoverlap~ 1024 16 black;
#N canvas 647 404 701 544 listen 0;
#X obj 140 56 inlet~;
#X obj 192 56 inlet~;
#X obj 41 168 line~;
#X msg 41 142 \$1 50;
#X obj 101 243 *~;
#X obj 101 220 line~;
#X msg 101 197 \$1 50;
#X obj 101 179 tgl 15 0 empty empty empty 17 7 0 10 #fcfcfc #000000 #000000 0 1;
#X obj 172 145 *~;
#X obj 173 213 clip~ -1 1;
#X obj 41 194 *~;
#X obj 40 272 outlet~;
#X obj 101 272 outlet~;
#X obj 41 56 inlet;
#X obj 92 56 inlet;
#X text 100 31 listen env?;
#X text 36 12 listen test?;
#X obj 138 107 osc~ 440;
#X obj 208 107 osc~ 932;
#X obj 276 107 osc~ 1343;
#X obj 172 174 *~ 0.8;
#X obj 41 220 *~ 0.8;
#X connect 0 0 10 1;
#X connect 1 0 8 1;
#X connect 2 0 10 0;
#X connect 3 0 2 0;
#X connect 4 0 12 0;
#X connect 5 0 4 0;
#X connect 6 0 5 0;
#X connect 7 0 6 0;
#X connect 8 0 20 0;
#X connect 9 0 4 1;
#X connect 10 0 21 0;
#X connect 13 0 3 0;
#X connect 14 0 7 0;
#X connect 17 0 8 0;
#X connect 18 0 8 0;
#X connect 19 0 8 0;
#X connect 20 0 9 0;
#X connect 21 0 11 0;
#X restore 32 593 pd listen;
#X obj 32 510 tgl 15 0 empty empty empty 17 7 0 10 #fcfcfc #000000 #000000 0 1;
#X text 48 509 listen to test signal?;
#X obj 32 458 loadbang;
#X msg 32 481 1;
#X obj 52 531 tgl 15 0 empty empty empty 17 7 0 10 #fcfcfc #000000 #000000 0 1;
#X text 72 525 listen to RMS as env?;
#X obj 32 618 dac~;
#X obj 31 397 send~ \$0_testsig;
#X obj 73 546 receive~ \$0_testsig;
#X obj 262 472 receive~ \$0_testsig;
#X floatatom 31 290 5 0.01 1000 0 - - - 0;
#X text 31 198 --- test signal;
#X obj 263 552 send~ \$0_rmsout;
#X obj 266 581 receive~ \$0_rmsout;
#X obj 92 570 receive~ \$0_rmsout;
#X obj 451 517 s \$0_to_rmsoverlap;
#X msg 474 447 get_window;
#X msg 474 470 get_window_sum;
#X msg 474 492 get_norm_vals;
#X text 448 425 check internal values;
#X obj 266 607 tabsend~ \$0_vecbuf;
#X obj 632 601 table \$0_vecbuf 64;
#X obj 796 602 array get \$0_vizarray;
#X connect 1 0 33 0;
#X connect 2 0 33 0;
#X connect 4 0 33 0;
#X connect 5 0 33 0;
#X connect 6 0 33 0;
#X connect 7 0 33 0;
#X connect 13 0 30 0;
#X connect 14 0 39 0;
#X connect 15 0 62 0;
#X connect 16 0 15 1;
#X connect 17 0 30 0;
#X connect 18 0 30 0;
#X connect 19 0 30 0;
#X connect 20 0 30 0;
#X connect 21 0 38 0;
#X connect 22 0 23 0;
#X connect 23 0 65 0;
#X connect 29 0 53 0;
#X connect 31 0 30 0;
#X connect 35 0 38 0;
#X connect 36 0 38 0;
#X connect 42 0 43 0;
#X connect 43 0 16 0;
#X connect 46 0 77 0;
#X connect 47 0 39 0;
#X connect 48 0 39 0;
#X connect 50 0 51 0;
#X connect 51 0 52 0;
#X connect 53 0 67 0;
#X connect 53 1 50 0;
#X connect 53 1 49 0;
#X connect 54 0 61 0;
#X connect 54 1 61 1;
#X connect 55 0 54 0;
#X connect 57 0 58 0;
#X connect 58 0 55 0;
#X connect 59 0 54 1;
#X connect 63 0 54 2;
#X connect 64 0 53 0;
#X connect 65 0 15 0;
#X connect 68 0 75 0;
#X connect 69 0 54 3;
#X connect 71 0 70 0;
#X connect 72 0 70 0;
#X connect 73 0 70 0;
#X connect 77 0 45 0;
